<?xml version="1.0" encoding="UTF-8"?>
<svg id="Livello_1" data-name="Livello 1" xmlns="http://www.w3.org/2000/svg" viewBox="0 0 1080 1080">
  <path d="M812.18,267.82c-40.86,82.01-62.24,171-63.86,260.38-1.91,97.15,19.27,194.6,63.76,283.88-85.65-42.67-178.86-64.06-272.08-64.06-93.22,0-186.43,21.39-272.08,64.06,42.68-85.65,63.96-178.97,63.96-272.18,0-93.22-21.39-186.43-64.06-272.08,53.26,26.64,93.86,44.93,167.76,48.79,245.16,12.79,383.46-133.72,389.11-138.37-19.68,8.17-39.55,15.54-59.73,21.99-73.04,23.4-149.1,35.11-224.96,35.1-181.39,0-362.57-66.58-504.41-199.75,133.16,141.84,199.75,323.02,199.75,504.41,0,181.18-66.58,362.57-199.75,504.41,141.84-133.16,323.12-199.85,504.41-199.75,181.29-.1,362.57,66.58,504.41,199.75-261.08-277.83-266.23-707.49-15.84-991.37l15.84-17.45-232.23,232.23Z"/>
  <path d="M1044.41,35.59l-15.84,17.45-170.39,188.75,3.33,36.62s-113.19,404.74-113.19,249.79c0-154.96-337.45,140.93-337.45,140.93L1044.41,35.59Z"/>
</svg>